<?xml version="1.0" encoding="UTF-8" standalone="no"?>
<svg xmlns="http://www.w3.org/2000/svg" version="1.1" viewBox="0 0 256 256" height="256" width="256">
<path d="m9 43.734v147.16l24.574-68.52a4.5004 4.5004 0 0 1 4.237 -2.98h57.392l23.857-24.913a4.5004 4.5004 0 0 1 3.25 -1.389h87.31v-32.096h-122.66a4.5004 4.5004 0 0 1 -4.497 -4.502l0.002-12.756h-73.465zm115.23 58.356l-23.86 24.91a4.5004 4.5004 0 0 1 -3.247 1.39h-56.146l-30.082 83.88h198.72v-110.18h-85.39z" fill-rule="evenodd" fill="#72a7cf"/>
<path d="m124.23 102.09h121.22l-33.049 110.18h-201.51l30.082-83.877h56.146a4.5004 4.5004 0 0 0 3.25 -1.3867l23.859-24.914z" fill-rule="evenodd" fill="#72a7cf"/>
</svg>
